<svg width="81" height="81" viewBox="0 0 81 81" fill="none" xmlns="http://www.w3.org/2000/svg">
<g clip-path="url(#clip0)">
<path d="M6.47506 0.933594C5.73974 0.933594 5.19192 1.53282 5.25724 2.26501L11.4559 71.7933C11.5212 72.5256 12.154 73.2858 12.8628 73.4825L39.1667 80.786C39.8753 80.9827 41.0345 80.9827 41.7433 80.7865L68.1272 73.471C68.8358 73.2744 69.4694 72.5144 69.5345 71.7822L75.7435 2.26501C75.8093 1.53282 75.2608 0.933594 74.5255 0.933594H6.47506ZM62.5426 16.8796C62.484 17.5328 62.3828 18.6667 62.3175 19.399L62.1542 21.2233C62.0884 21.9553 61.9948 23.0023 61.9454 23.5497C61.8962 24.0972 61.8495 24.5452 61.8409 24.5452C61.8326 24.5452 61.224 24.5452 60.4889 24.5452H41.8372C41.1019 24.5452 40.4942 24.5452 40.4862 24.5452C40.4783 24.5452 39.87 24.5452 39.1346 24.5452H29.3115C28.5761 24.5452 28.0283 25.1444 28.0936 25.8766L28.6666 32.2813C28.7319 33.0133 29.3872 33.6127 30.1224 33.6127H39.1348C39.8701 33.6127 40.4783 33.6127 40.4864 33.6127C40.4945 33.6127 41.1022 33.6127 41.8373 33.6127H57.3284C58.0637 33.6127 59.2015 33.6127 59.8568 33.6127C60.5117 33.6127 60.9993 34.1473 60.94 34.8004C60.8803 35.4535 60.7784 36.5877 60.7132 37.3198L58.8709 57.9684C58.8051 58.7007 58.722 59.6362 58.6862 60.0474C58.6496 60.4584 58.0402 60.9554 57.3316 61.152L41.7887 65.4617C41.0801 65.6579 40.4915 65.8204 40.4804 65.8229C40.4695 65.8253 39.8811 65.6662 39.1722 65.4698L23.6127 61.1523C22.9041 60.9557 22.2709 60.1957 22.2058 59.4634L21.2042 48.2219C21.1389 47.4895 21.6873 46.8903 22.4227 46.8903H23.8427C24.578 46.8903 25.7811 46.8903 26.5163 46.8903H28.6338C29.3691 46.8903 30.0238 47.4895 30.0896 48.2219L30.4824 52.6225C30.5477 53.3549 31.1816 54.1107 31.8916 54.3024L39.1696 56.2679C39.8792 56.4596 40.4626 56.6165 40.4659 56.6165C40.4692 56.6165 41.0523 56.4593 41.7622 56.2676L49.0533 54.2974C49.7628 54.1057 50.3974 53.3496 50.4632 52.6175L51.2538 43.8008C51.3196 43.0684 50.7718 42.4692 50.0364 42.4692H41.8373C41.102 42.4692 40.4943 42.4692 40.4864 42.4692C40.4784 42.4692 39.8701 42.4692 39.1348 42.4692H22.0263C21.2909 42.4692 20.6362 41.8698 20.5709 41.1378L18.6309 19.3992C18.5656 18.6668 18.4644 17.5332 18.4058 16.8798C18.3478 16.2267 18.9014 15.6921 19.6367 15.6921H39.1348C39.8701 15.6921 40.4783 15.6921 40.4864 15.6921C40.4945 15.6921 41.1022 15.6921 41.8373 15.6921H61.3118C62.047 15.6918 62.6009 16.2262 62.5426 16.8796Z" fill="#F16A51"/>
</g>
<defs>
<clipPath id="clip0">
<rect width="80" height="80" fill="white" transform="translate(0.5 0.933594)"/>
</clipPath>
</defs>
</svg>
